<svg viewBox="0 0 496 512" version="1.1" xmlns="http://www.w3.org/2000/svg">

    <path d="M 133.7,303.6 40.4,120.1 C 14.9,159.1 0,205.9 0,256 0,380 90.8,482.7 209.5,500.9 L 273.2,376.1 C 215.6,386.9 160,355.3 133.7,303.6 Z" fill="#6199f6" />
    <path d="M 479.3,166.8 339.6,174 c 37.9,44.3 38.5,108.2 6.6,157.2 L 234.1,503.6 c 46.5,2.5 94.4,-7.7 137.8,-32.9 107.4,-62 150.9,-192 107.4,-303.9 z" fill="#a2c2fa" />
    <path d="m 164.4,256 c 0,46.2 37.4,83.6 83.6,83.6 46.2,0 83.6,-37.4 83.6,-83.6 0,-46.2 -37.4,-83.6 -83.6,-83.6 -46.2,0 -83.6,37.3 -83.6,83.6 z" fill="#4688f4" />
    <path d="M 131.5,217.5 55.1,100.1 c 47.6,-59.2 119,-91.8 192,-92.1 42.3,-0.3 85.5,10.5 124.8,33.2 43.4,25.2 76.4,61.4 97.4,103 L 264,133.4 C 205.9,130 150.6,162.7 131.5,217.5 Z" fill="#396bd7" />
</svg>