<?xml version="1.0" encoding="UTF-8" standalone="no"?>
<svg
   aria-hidden="true"
   focusable="false"
   data-prefix="fab"
   data-icon="edge"
   role="img"
   viewBox="0 0 512 512"
   class="svg-inline--fa fa-edge fa-w-16 fa-3x"
   version="1.1"
   id="svg4"
   sodipodi:docname="egde.svg"
   inkscape:version="1.1.1 (3bf5ae0d25, 2021-09-20, custom)"
   xmlns:inkscape="http://www.inkscape.org/namespaces/inkscape"
   xmlns:sodipodi="http://sodipodi.sourceforge.net/DTD/sodipodi-0.dtd"
   xmlns:xlink="http://www.w3.org/1999/xlink"
   xmlns="http://www.w3.org/2000/svg"
   xmlns:svg="http://www.w3.org/2000/svg">
  <defs
     id="defs8">
    <linearGradient
       inkscape:collect="always"
       id="linearGradient3511">
      <stop
         style="stop-color:#023f79;stop-opacity:1"
         offset="0"
         id="stop3507" />
      <stop
         style="stop-color:#074d92;stop-opacity:1"
         offset="1"
         id="stop3509" />
    </linearGradient>
    <linearGradient
       inkscape:collect="always"
       id="linearGradient2177">
      <stop
         style="stop-color:#095d8e;stop-opacity:1"
         offset="0"
         id="stop2173" />
      <stop
         style="stop-color:#0e8aca;stop-opacity:1"
         offset="1"
         id="stop2175" />
    </linearGradient>
    <linearGradient
       inkscape:collect="always"
       id="linearGradient859">
      <stop
         style="stop-color:#2bc3e0;stop-opacity:1"
         offset="0"
         id="stop855" />
      <stop
         style="stop-color:#33c851;stop-opacity:1"
         offset="1"
         id="stop857" />
    </linearGradient>
    <linearGradient
       inkscape:collect="always"
       xlink:href="#linearGradient859"
       id="linearGradient1469"
       gradientUnits="userSpaceOnUse"
       x1="273.62149"
       y1="95.320602"
       x2="555.92493"
       y2="331.43845" />
    <linearGradient
       inkscape:collect="always"
       xlink:href="#linearGradient2177"
       id="linearGradient2179"
       x1="152.52376"
       y1="151.38879"
       x2="239.55014"
       y2="501.93808"
       gradientUnits="userSpaceOnUse" />
    <linearGradient
       inkscape:collect="always"
       xlink:href="#linearGradient3511"
       id="linearGradient3513"
       x1="172.33644"
       y1="285.10516"
       x2="270.79404"
       y2="413.55725"
       gradientUnits="userSpaceOnUse" />
  </defs>
  <sodipodi:namedview
     id="namedview6"
     pagecolor="#ffffff"
     bordercolor="#666666"
     borderopacity="1.0"
     inkscape:pageshadow="2"
     inkscape:pageopacity="0.0"
     inkscape:pagecheckerboard="0"
     showgrid="false"
     inkscape:zoom="0.29762014"
     inkscape:cx="357.83869"
     inkscape:cy="199.91927"
     inkscape:window-width="1366"
     inkscape:window-height="744"
     inkscape:window-x="1366"
     inkscape:window-y="0"
     inkscape:window-maximized="1"
     inkscape:current-layer="svg4" />
  <path
     d="m 463.49,377.34 a 7.76,7.76 0 0 0 -7.92,-0.23 181.66,181.66 0 0 1 -20.41,9.12 197.54,197.54 0 0 1 -69.55,12.52 c -91.67,0 -171.52,-63.06 -171.52,-144 a 61.12,61.12 0 0 1 6.52,-26.75 168.72,168.72 0 0 0 -38.76,50 c -14.92,29.37 -33,88.13 13.33,151.66 6.51,8.91 23,30 56,47.67 23.57,12.65 49,19.61 71.7,19.61 35.14,0 115.43,-33.44 163,-108.87 a 7.75,7.75 0 0 0 -2.39,-10.73 z"
     id="path829"
     style="fill-opacity:1;fill:url(#linearGradient3513)" />
  <path
     d="m 212.77,475.67 a 154.88,154.88 0 0 1 -46.64,-45 c -32.94,-47.42 -34.24,-95.6 -20.1,-136 A 155.5,155.5 0 0 1 203,215.75 c 59,-45.2 94.84,-5.65 99.06,-1 a 80,80 0 0 0 -4.89,-10.14 c -9.24,-15.93 -24,-36.41 -56.56,-53.51 -33.72,-17.69 -70.59,-18.59 -77.64,-18.59 -38.71,0 -77.9,13 -107.53,35.69 -19.76,15.1 -42.67,40.52 -46.84,74.8 -1.08,12.31 -2.75,62.8 23,118.27 a 248,248 0 0 0 248.3,141.61 c -38.12,-6.62 -65.85,-26.64 -67.13,-27.21 z"
     id="path827"
     style="fill-opacity:1;fill:url(#linearGradient2179)" />
  <path
     d="M 481.92,134.48 C 440.87,54.18 352.26,8 255.91,8 137.05,8 37.51,91.68 13.47,203.66 c 26,-46.49 86.22,-79.14 149.46,-79.14 79.27,0 121.09,48.93 122.25,50.18 22,23.8 33,50.39 33,83.1 0,10.4 -5.31,25.82 -15.11,38.57 -1.57,2 -6.39,4.84 -6.39,11 0,5.06 3.29,9.92 9.14,14 27.86,19.37 80.37,16.81 80.51,16.81 A 115.39,115.39 0 0 0 444.94,322 118.92,118.92 0 0 0 503.89,219.56 c 0.5,-43.43 -15.5,-72.3 -21.97,-85.08 z"
     id="path2"
     style="mix-blend-mode:normal;fill:url(#linearGradient1469);fill-opacity:1" />
</svg>
