<?xml version="1.0" encoding="UTF-8" standalone="no"?>
<!-- Generator: Adobe Illustrator 19.0.0, SVG Export Plug-In . SVG Version: 6.00 Build 0)  -->

<svg
   version="1.1"
   id="Layer_1"
   x="0px"
   y="0px"
   viewBox="0 0 512 388.414"
   xml:space="preserve"
   sodipodi:docname="browser-svgrepo-com.svg"
   inkscape:version="1.2.1 (9c6d41e410, 2022-07-14, custom)"
   width="512"
   height="388.414"
   xmlns:inkscape="http://www.inkscape.org/namespaces/inkscape"
   xmlns:sodipodi="http://sodipodi.sourceforge.net/DTD/sodipodi-0.dtd"
   xmlns="http://www.w3.org/2000/svg"
   xmlns:svg="http://www.w3.org/2000/svg"><defs
   id="defs101" /><sodipodi:namedview
   id="namedview99"
   pagecolor="#ffffff"
   bordercolor="#666666"
   borderopacity="1.0"
   inkscape:showpageshadow="2"
   inkscape:pageopacity="0.0"
   inkscape:pagecheckerboard="0"
   inkscape:deskcolor="#d1d1d1"
   showgrid="false"
   inkscape:zoom="0.921875"
   inkscape:cx="216.94915"
   inkscape:cy="229.9661"
   inkscape:window-width="1366"
   inkscape:window-height="706"
   inkscape:window-x="0"
   inkscape:window-y="0"
   inkscape:window-maximized="1"
   inkscape:current-layer="Layer_1" />
































<g
   id="g4771"
   transform="translate(0,-61.793)"><path
     style="fill:#d2dcf0"
     d="M 485.517,61.793 H 26.483 C 11.857,61.793 0,73.65 0,88.276 v 335.448 c 0,14.626 11.857,26.483 26.483,26.483 H 485.517 C 500.143,450.207 512,438.35 512,423.724 V 88.276 C 512,73.65 500.143,61.793 485.517,61.793 Z m 8.828,105.931 v 256 c 0,4.875 -3.953,8.828 -8.828,8.828 H 26.483 c -4.875,0 -8.828,-3.953 -8.828,-8.828 v -256 -44.138 c 0,-4.875 3.953,-8.828 8.828,-8.828 h 459.034 c 4.875,0 8.828,3.953 8.828,8.828 z"
     id="path2"
     sodipodi:nodetypes="ssssssssscsssscsssscc" /><path
     id="path4"
     style="fill:#ffffff"
     d="m 26.482422,114.75781 c -4.874995,0 -8.828125,3.95313 -8.828125,8.82813 v 44.13867 256 c 0,4.87499 3.95313,8.82812 8.828125,8.82812 H 485.51758 c 4.87499,0 8.82812,-3.95313 8.82812,-8.82812 v -256 -44.13867 c 0,-4.876 -3.95313,-8.82813 -8.82812,-8.82813 z" /><circle
     style="fill:#ff6469"
     cx="26.483"
     cy="88.276001"
     r="8.8280001"
     id="circle6" /><circle
     style="fill:#ffe169"
     cx="52.966"
     cy="88.276001"
     r="8.8280001"
     id="circle8" /><circle
     style="fill:#87e1aa"
     cx="79.447998"
     cy="88.276001"
     r="8.8280001"
     id="circle10" /><g
     id="g22">
	<path
   style="fill:#e4eaf6"
   d="m 114.759,97.103 h 8.828 c 4.875,0 8.828,-3.953 8.828,-8.828 0,-4.875 -3.953,-8.828 -8.828,-8.828 h -8.828 c -4.875,0 -8.828,3.953 -8.828,8.828 0,4.876 3.953,8.828 8.828,8.828 z"
   id="path12" />
	<path
   style="fill:#e4eaf6"
   d="m 150.069,97.103 h 8.828 c 4.875,0 8.828,-3.953 8.828,-8.828 0,-4.875 -3.953,-8.828 -8.828,-8.828 h -8.828 c -4.875,0 -8.828,3.953 -8.828,8.828 0,4.876 3.953,8.828 8.828,8.828 z"
   id="path14" />
	<path
   style="fill:#e4eaf6"
   d="m 441.379,97.103 h 8.828 c 4.875,0 8.828,-3.953 8.828,-8.828 0,-4.875 -3.953,-8.828 -8.828,-8.828 h -8.828 c -4.875,0 -8.828,3.953 -8.828,8.828 0.001,4.876 3.953,8.828 8.828,8.828 z"
   id="path16" />
	<path
   style="fill:#e4eaf6"
   d="m 485.517,79.448 h -8.828 c -4.875,0 -8.828,3.953 -8.828,8.828 0,4.875 3.953,8.828 8.828,8.828 h 8.828 c 4.875,0 8.828,-3.953 8.828,-8.828 0,-4.875 -3.953,-8.828 -8.828,-8.828 z"
   id="path18" />
	<path
   style="fill:#e4eaf6"
   d="m 194.207,97.103 h 211.862 c 4.875,0 8.828,-3.953 8.828,-8.828 0,-4.875 -3.953,-8.828 -8.828,-8.828 H 194.207 c -4.875,0 -8.828,3.953 -8.828,8.828 0,4.876 3.953,8.828 8.828,8.828 z"
   id="path20" />
</g><g
     id="g472"
     transform="matrix(0.19730778,0,0,0.19730778,159.99983,177.65527)"
     style="fill:#8a7fae;fill-opacity:1"><g
       id="g417"
       style="fill:#8a7fae;fill-opacity:1">
	<path
   d="m 502.29,788.199 h -47 c -33.1,0 -60,26.9 -60,60 v 64.9 c 0,33.1 26.9,60 60,60 h 47 c 33.101,0 60,-26.9 60,-60 v -64.9 c 0,-33.199 -26.899,-60 -60,-60 z"
   id="path413"
   style="fill:#8a7fae;fill-opacity:1" />
	<path
   d="m 170.89,285.8 86.7,10.8 c 27.5,3.4 53.6,-12.4 63.5,-38.3 12.5,-32.7 29.9,-58.5 52.2,-77.3 31.601,-26.6 70.9,-40 117.9,-40 48.7,0 87.5,12.8 116.3,38.3 28.8,25.6 43.1,56.2 43.1,92.1 0,25.8 -8.1,49.4 -24.3,70.8 -10.5,13.6 -42.8,42.2 -96.7,85.9 -54,43.7 -89.899,83.099 -107.899,118.099 -18.4,35.801 -24.8,75.5 -26.4,115.301 -1.399,34.1 25.8,62.5 60,62.5 h 49 c 31.2,0 57,-23.9 59.8,-54.9 2,-22.299 5.7,-39.199 11.301,-50.699 9.399,-19.701 33.699,-45.701 72.699,-78.1 C 723.59,477.8 772.79,428.4 795.891,392 c 23,-36.3 34.6,-74.8 34.6,-115.5 0,-73.5 -31.3,-138 -94,-193.4 -62.6,-55.4 -147,-83.1 -253,-83.1 -100.8,0 -182.1,27.3 -244.1,82 -52.8,46.6 -84.9,101.8 -96.2,165.5 -3.501,18.6 9.199,36 27.699,38.3 z"
   id="path415"
   style="fill:#8a7fae;fill-opacity:1" />
</g><g
       id="g419"
       style="fill:#8a7fae;fill-opacity:1">
</g><g
       id="g421"
       style="fill:#8a7fae;fill-opacity:1">
</g><g
       id="g423"
       style="fill:#8a7fae;fill-opacity:1">
</g><g
       id="g425"
       style="fill:#8a7fae;fill-opacity:1">
</g><g
       id="g427"
       style="fill:#8a7fae;fill-opacity:1">
</g><g
       id="g429"
       style="fill:#8a7fae;fill-opacity:1">
</g><g
       id="g431"
       style="fill:#8a7fae;fill-opacity:1">
</g><g
       id="g433"
       style="fill:#8a7fae;fill-opacity:1">
</g><g
       id="g435"
       style="fill:#8a7fae;fill-opacity:1">
</g><g
       id="g437"
       style="fill:#8a7fae;fill-opacity:1">
</g><g
       id="g439"
       style="fill:#8a7fae;fill-opacity:1">
</g><g
       id="g441"
       style="fill:#8a7fae;fill-opacity:1">
</g><g
       id="g443"
       style="fill:#8a7fae;fill-opacity:1">
</g><g
       id="g445"
       style="fill:#8a7fae;fill-opacity:1">
</g><g
       id="g447"
       style="fill:#8a7fae;fill-opacity:1">
</g></g></g></svg>
